# xmcd
#
# Track frame offsets:
#	150
#	19366
#	36677
#	53649
#	68650
#	89176
#	109793
#	127181
#	144372
#	160970
#	174861
#	190860
#	207770
#	224612
#	242601
#	259530
#
# Disc length: 3533 seconds
# Revision: 6
# Processed by: cddbd v1.5.2PL0 Copyright (c) Steve Scherf et al.
# Submitted via: dBpowerAMP V12.0
#
DISCID=ee0dcb10
DTITLE=Various Artist - Love And War
DYEAR=2017
DGENRE=Country
TTITLE0=Brad Paisley - Heaven South
TTITLE1=Brad Paisley - Last Time For Everything
TTITLE2=Brad Paisley - One Beer Can
TTITLE3=Brad Paisley - Go To Bed Early
TTITLE4=Brad Paisley and Mick Jagger - Drive Of Shame
TTITLE5=Brad Paisley - Contact High
TTITLE6=Brad Paisley and John Fogerty - Love And War
TTITLE7=Brad Paisley - Today
TTITLE8=Brad Paisley - Selfie#TheInternetIsForever
TTITLE9=Brad Paisley and Timbaland - Grey Goose Chase
TTITLE10=Brad Paisley - Gold All Over The Ground
TTITLE11=Brad Paisley - Dying To See Her
TTITLE12=Brad Paisley and Timbaland - Solar Power Girl
TTITLE13=Brad Paisley - The Devil Is Alive And Well
TTITLE14=Brad Paisley - Meaning Again
TTITLE15=Brad Paisley - Heaven South (Reprise)
EXTD=
EXTT0=
EXTT1=
EXTT2=
EXTT3=
EXTT4=
EXTT5=
EXTT6=
EXTT7=
EXTT8=
EXTT9=
EXTT10=
EXTT11=
EXTT12=
EXTT13=
EXTT14=
EXTT15=
PLAYORDER=
